<?xml version="1.0" standalone="no"?>
<!DOCTYPE svg PUBLIC "-//W3C//DTD SVG 20010904//EN"
 "http://www.w3.org/TR/2001/REC-SVG-20010904/DTD/svg10.dtd">
<svg version="1.0" xmlns="http://www.w3.org/2000/svg"
 width="300.000000pt" height="270.000000pt" viewBox="0 0 300.000000 270.000000"
 preserveAspectRatio="xMidYMid meet">
<metadata>
Created by potrace 1.10, written by Peter Selinger 2001-2011
</metadata>
<g transform="translate(0.000000,270.000000) scale(0.100000,-0.100000)"
fill="#000000" stroke="none">
<path d="M1272 2656 c-19 -25 -19 -25 -88 -10 -159 33 -261 4 -246 -71 3 -20
13 -25 72 -35 66 -11 151 -2 248 26 19 5 22 3 22 -20 0 -14 5 -26 10 -26 6 0
10 -6 10 -12 0 -8 -30 -20 -71 -30 -80 -19 -90 -25 -69 -38 18 -11 19 -11 -65
-53 -68 -34 -71 -37 -109 -113 -58 -116 -96 -213 -96 -242 0 -41 15 -17 86
133 35 76 69 144 75 151 11 13 270 154 283 154 6 0 108 -203 103 -205 -1 -1
-38 -9 -82 -19 -189 -43 -408 -160 -436 -233 -5 -13 -13 -22 -18 -18 -5 3 -22
-18 -37 -46 -29 -53 -47 -54 -20 -1 9 17 15 53 14 83 -2 86 11 138 58 231 47
94 70 116 151 142 54 18 78 36 47 36 -33 0 6 28 77 56 48 19 66 31 59 38 -14
14 -92 -13 -205 -72 l-90 -47 -48 -92 -48 -91 -25 23 c-38 36 -165 81 -279
100 -133 23 -245 17 -311 -16 l-48 -24 -4 -106 c-3 -124 16 -235 50 -286 19
-27 29 -33 61 -33 20 0 37 -4 37 -9 0 -11 -55 -31 -85 -31 -21 0 -23 -6 -30
-88 -5 -66 -3 -105 9 -153 9 -35 15 -98 14 -139 -2 -83 3 -100 33 -100 25 0
25 -33 0 -68 -89 -127 -99 -260 -30 -400 40 -82 86 -126 173 -168 61 -29 81
-34 146 -34 l76 0 23 -71 23 -70 -39 -33 c-37 -33 -38 -35 -41 -112 -3 -75 -2
-82 29 -129 29 -46 32 -57 34 -140 2 -103 15 -145 45 -145 24 0 24 -3 0 48
-14 28 -20 61 -20 106 l0 65 33 -18 c48 -29 102 -33 131 -10 13 10 26 19 29
19 13 0 29 -97 24 -151 l-5 -60 31 3 32 3 6 290 c6 240 4 295 -7 318 -19 36
-28 34 -20 -5 4 -18 4 -106 0 -195 -5 -127 -10 -163 -21 -163 -10 0 -13 18
-13 73 0 39 -4 89 -9 110 -7 30 -6 37 6 37 23 0 12 102 -15 139 -19 26 -19 30
-5 50 11 17 18 19 28 11 11 -9 14 -3 17 31 2 24 9 46 18 50 8 5 88 54 178 108
123 76 164 97 169 86 3 -8 12 -15 20 -15 13 0 13 3 -1 25 -22 33 -3 32 23 -1
30 -38 130 -114 150 -114 22 0 115 69 152 112 31 36 38 32 13 -6 -9 -15 -11
-26 -5 -30 6 -4 17 4 26 18 l16 25 107 -66 c59 -37 139 -85 177 -108 69 -42
70 -43 67 -80 -3 -35 -2 -37 13 -25 14 12 18 12 26 -1 46 -68 82 -184 98 -314
5 -44 9 -80 8 -80 -1 -1 -31 -13 -66 -28 -35 -15 -66 -25 -68 -23 -8 8 -24
313 -19 358 6 54 -9 73 -25 31 -7 -18 -9 -65 -5 -133 4 -58 7 -177 6 -265 0
-178 6 -225 26 -225 10 0 14 24 16 101 l3 101 50 19 c65 25 67 25 61 -13 -3
-18 -8 -72 -12 -121 -5 -72 -3 -87 9 -87 10 0 16 18 21 68 3 37 11 117 18 177
10 94 9 124 -5 207 -18 108 -57 214 -92 252 -12 13 -25 36 -29 50 -4 17 -13
26 -26 26 -11 0 -30 10 -42 21 -13 12 -81 57 -153 99 -71 43 -137 84 -146 92
-8 8 -23 17 -32 21 -20 8 -24 66 -4 71 6 2 61 15 121 29 114 27 167 57 193
108 12 24 13 24 13 2 0 -12 -5 -45 -11 -73 -6 -27 -9 -55 -7 -62 9 -27 97 120
133 222 35 98 38 113 39 227 1 106 3 123 17 123 10 0 19 -11 22 -28 3 -16 19
-42 34 -59 23 -24 26 -33 15 -39 -11 -8 -11 -20 2 -74 17 -74 53 -115 93 -107
29 5 30 -13 3 -38 -32 -29 -25 -64 22 -112 42 -43 63 -53 70 -32 2 6 21 9 42
7 l38 -3 -36 -54 c-41 -60 -44 -71 -18 -71 37 0 182 33 182 42 0 5 -7 25 -15
45 -22 52 -19 58 28 70 l42 12 -3 75 c-4 72 -3 76 17 76 30 0 44 42 38 118 -3
44 0 72 9 90 15 29 18 130 8 220 -6 45 -10 52 -29 52 -30 0 -85 20 -85 31 0 5
17 9 38 9 76 0 107 81 107 285 l0 140 -50 25 c-37 19 -70 26 -130 29 -192 9
-454 -72 -501 -154 l-20 -35 -18 57 c-34 108 -71 166 -148 236 -61 54 -84 68
-135 81 -33 9 -72 16 -86 16 -24 0 -25 3 -20 34 5 31 2 36 -28 52 -48 25 -190
31 -257 11 -44 -12 -53 -13 -63 -1 -18 22 -56 16 -77 -10z m363 -28 c51 -23
14 -48 -69 -48 -65 0 -196 21 -196 31 0 8 46 24 90 33 37 7 147 -3 175 -16z
m-300 -18 c0 -16 -6 -26 -19 -28 -24 -5 -37 17 -25 41 14 26 44 17 44 -13z
m-117 -1 c12 -5 22 -13 22 -18 0 -14 -165 -25 -223 -14 l-52 9 35 22 c32 20
43 22 115 16 44 -4 90 -11 103 -15z m122 -60 c7 -11 9 -23 6 -26 -8 -9 -36 17
-36 33 0 21 18 17 30 -7z m364 -5 c94 -13 41 -23 -139 -26 -171 -3 -185 -2
-185 15 0 15 13 17 139 17 76 0 159 -3 185 -6z m253 -146 c28 -29 113 -190
113 -214 0 -5 13 -17 30 -26 28 -16 29 -16 35 2 21 65 220 160 337 160 20 0
40 5 43 10 16 26 192 2 237 -32 47 -35 26 -305 -27 -351 -30 -27 -50 -30 -275
-31 -224 -1 -242 3 -233 57 8 54 -43 141 -90 152 -15 4 -31 13 -35 19 -4 7
-28 27 -54 45 -27 18 -48 40 -48 50 0 24 -48 96 -108 162 -47 51 -57 57 -114
69 -91 19 -92 24 -8 30 74 5 75 5 120 -32 25 -20 59 -51 77 -70z m-290 63
c132 -28 147 -34 185 -77 34 -39 108 -139 108 -147 0 -3 -24 4 -52 16 -47 19
-76 22 -247 24 l-195 2 -19 52 c-11 29 -33 75 -48 101 -16 27 -29 50 -29 51 0
11 215 -5 297 -22z m-1122 -135 c81 -14 255 -82 284 -110 12 -13 13 -19 1 -40
-10 -19 -11 -49 -6 -119 7 -109 8 -107 -76 -132 -45 -13 -90 -15 -225 -12
-196 4 -230 11 -259 54 -29 44 -47 157 -39 248 7 70 10 77 36 90 68 36 161 43
284 21z m1331 -98 c131 -37 298 -164 306 -232 5 -41 6 -41 -32 -21 -15 8 -90
31 -167 51 -134 35 -142 36 -258 30 -143 -7 -326 -37 -450 -72 -161 -46 -268
-96 -383 -181 -29 -20 -40 -8 -37 43 4 52 46 107 143 183 129 103 246 154 472
207 72 17 336 12 406 -8z m14 -213 c36 -9 101 -27 145 -40 80 -24 82 -25 120
-85 22 -33 45 -60 52 -60 6 0 15 -5 18 -10 20 -32 -109 27 -133 61 -7 10 -22
24 -33 30 -29 15 44 -121 94 -174 37 -40 46 -54 28 -42 -5 3 -16 -1 -24 -10
-13 -13 -16 -13 -27 0 -10 12 -9 15 6 15 29 0 4 16 -56 35 -30 10 -90 38 -134
62 -43 23 -82 43 -86 43 -4 0 -15 9 -25 20 -10 11 -27 22 -39 26 -11 4 -45 22
-74 40 -29 19 -57 34 -62 34 -13 0 -13 17 0 25 6 3 10 15 10 26 0 17 7 19 78
19 42 0 106 -7 142 -15z m-250 0 c0 -2 -9 -21 -20 -42 -14 -27 -21 -69 -26
-145 -6 -95 -9 -108 -25 -108 -24 0 -99 41 -150 81 -47 37 -119 124 -119 144
0 12 42 23 235 59 79 15 105 18 105 11z m-380 -90 c0 -8 -17 -23 -37 -34 -21
-10 -63 -35 -93 -55 -30 -20 -58 -36 -62 -36 -5 0 -27 -12 -51 -27 -23 -16
-46 -28 -52 -28 -5 -1 -33 -9 -62 -19 -40 -13 -50 -21 -46 -33 5 -13 2 -15
-11 -10 -10 4 -22 7 -27 7 -18 0 -9 29 11 35 11 3 20 11 20 16 0 5 8 9 19 9
10 0 33 11 52 25 69 49 155 98 233 131 91 38 106 40 106 19z m411 -23 c-23 -8
-10 -22 19 -22 17 0 47 -10 68 -23 71 -45 237 -132 246 -129 13 4 46 -29 46
-47 1 -13 3 -13 15 3 9 11 20 16 31 12 14 -5 12 -11 -15 -36 -31 -30 -51 -38
-51 -21 0 5 6 12 13 14 7 4 6 6 -4 6 -9 1 -20 8 -23 17 -4 9 -9 15 -11 12 -3
-3 1 -18 10 -34 15 -29 20 -64 9 -64 -3 0 -26 22 -50 49 -24 27 -55 51 -68 53
-24 5 -25 3 -28 -56 -3 -51 -6 -61 -20 -60 -22 2 -24 -12 -3 -20 23 -8 20 -67
-4 -73 -11 -3 -24 -18 -30 -34 -10 -28 -10 -28 -45 -14 -19 8 -51 15 -70 15
-31 0 -34 3 -41 37 -4 24 -3 39 4 41 6 2 11 8 11 13 0 6 -4 7 -10 4 -5 -3 -10
1 -10 10 0 10 5 13 13 9 6 -4 4 2 -5 13 -34 38 -15 93 32 93 23 0 31 -5 36
-25 6 -25 -17 -75 -35 -75 -16 0 1 -40 22 -55 12 -8 32 -15 44 -15 18 0 23 6
23 25 0 16 7 28 20 33 19 7 19 8 2 42 -10 22 -26 36 -39 38 -13 2 -23 10 -23
17 0 8 -8 18 -17 24 -29 16 -6 26 63 26 35 0 64 3 64 8 0 6 -41 12 -62 8 -5 0
-8 4 -8 10 0 10 134 4 152 -7 5 -3 8 -2 8 3 0 4 -21 17 -48 28 -64 27 -136 26
-191 -3 -51 -27 -83 -15 -35 13 29 16 19 16 -34 -1 -17 -5 -18 0 -11 67 11 95
15 105 35 88 10 -8 12 -15 5 -17z m-870 -9 c-26 -46 -28 -47 -46 -29 -10 9
-16 18 -14 20 9 6 55 25 62 25 4 1 3 -7 -2 -16z m1441 -3 c22 0 24 -16 2 -24
-20 -8 -44 10 -44 32 0 12 3 13 12 4 7 -7 20 -12 30 -12z m-1528 -26 c14 -15
26 -31 26 -36 0 -6 9 -23 21 -39 17 -25 20 -38 14 -81 -10 -72 -30 -114 -57
-122 -13 -3 -74 -11 -135 -18 -128 -13 -275 0 -302 27 -17 17 -28 145 -17 191
l7 27 172 -7 c126 -4 183 -3 213 6 23 7 42 16 43 21 3 19 -1 25 -20 30 -12 3
-18 10 -14 16 10 17 20 13 49 -15z m-66 -1 c-3 -16 -19 -18 -147 -21 -112 -2
-142 0 -139 10 3 7 12 13 21 13 8 0 19 4 23 8 4 4 61 7 126 7 108 0 119 -2
116 -17z m678 -33 c97 -103 194 -154 275 -143 l42 6 -16 -24 c-20 -28 -22 -40
-4 -34 9 4 11 -10 9 -54 -2 -32 1 -75 6 -95 6 -22 7 -38 1 -42 -13 -8 0 -26
16 -21 12 5 135 -15 165 -27 9 -4 19 2 26 16 7 13 22 43 35 68 18 34 24 62 24
112 0 38 3 68 6 68 8 0 43 -40 63 -72 27 -42 13 -88 -47 -148 -27 -28 -48 -52
-45 -55 3 -3 25 6 50 19 l46 24 6 -67 c14 -141 -34 -183 -266 -236 -62 -14
-137 -33 -166 -42 -49 -16 -56 -16 -105 0 -29 9 -101 28 -162 42 -198 47 -247
75 -264 155 -7 33 -7 58 -1 75 7 18 7 33 -1 47 -16 30 -4 33 34 9 19 -11 43
-21 53 -21 14 0 7 11 -28 43 -47 44 -77 113 -62 140 15 26 66 87 72 87 4 0 7
-33 7 -73 1 -60 5 -80 28 -118 15 -25 27 -54 27 -64 0 -13 5 -16 23 -11 12 4
64 15 115 24 51 10 90 21 86 24 -3 4 -7 50 -8 103 -1 73 2 95 12 95 23 0 3 43
-36 77 -48 42 -122 67 -174 59 -42 -7 -144 -54 -135 -62 3 -3 15 -1 26 5 27
15 138 24 145 12 3 -4 -12 -11 -34 -15 -22 -3 -40 -10 -40 -15 0 -5 -18 -11
-40 -15 -32 -5 -46 -15 -70 -48 -17 -23 -33 -59 -36 -80 -6 -37 -17 -48 -29
-28 -3 6 -17 10 -31 10 -17 0 -24 5 -24 20 0 17 5 19 33 14 l32 -6 -35 20 -35
20 -6 -27 c-9 -42 5 -66 35 -63 l26 3 0 -117 c0 -107 -1 -115 -17 -103 -25 21
-41 69 -57 167 -18 109 -11 205 13 200 9 -2 16 -8 16 -13 0 -19 16 -35 36 -35
10 0 19 -7 19 -15 0 -22 17 -18 23 5 3 12 1 20 -6 19 -34 -4 -49 3 -58 30 -6
17 -18 32 -27 35 -13 3 -12 4 3 3 11 0 37 5 57 12 21 7 42 10 47 7 5 -4 13 0
18 7 4 8 49 35 98 62 50 26 106 58 125 71 19 13 36 23 37 23 1 1 23 -22 49
-49z m1274 40 c0 -5 7 -10 15 -10 8 0 15 6 15 13 0 8 3 7 10 -3 5 -8 6 -18 2
-22 -4 -4 -85 -9 -180 -10 -108 -2 -171 -7 -170 -13 2 -6 84 -10 221 -10 185
0 218 -2 221 -15 13 -48 15 -114 5 -154 -19 -75 -35 -81 -220 -81 -107 1 -162
5 -171 13 -8 6 -30 13 -48 15 -18 2 -38 11 -45 20 -16 22 -18 141 -3 191 21
71 33 75 201 76 91 0 147 -4 147 -10z m-1772 -38 c-2 -11 2 -25 8 -33 8 -9 9
-22 3 -36 -9 -23 -34 -33 -26 -10 2 6 -4 23 -15 36 -17 23 -17 25 -2 43 22 23
36 23 32 0z m1363 -52 c5 0 9 -12 9 -27 l0 -26 -25 23 c-28 27 -33 45 -9 36 9
-3 20 -6 25 -6z m-912 -91 c46 -15 51 -19 61 -63 6 -28 5 -38 -7 -44 -12 -7
-12 -10 1 -21 19 -16 21 -61 4 -84 -12 -15 -88 -37 -143 -41 -15 -1 -27 13
-48 52 -27 54 -28 72 -2 72 9 0 5 9 -11 25 -37 37 -19 85 31 85 48 0 66 -50
31 -84 -18 -16 -21 -26 -15 -44 17 -45 89 -55 89 -12 0 11 8 25 19 32 27 17 9
66 -27 75 -15 3 -32 12 -37 20 -6 7 -24 17 -40 22 l-30 9 25 10 c27 10 43 9
99 -9z m856 -76 c11 -97 -40 -353 -84 -422 -5 -8 -7 56 -3 158 4 154 3 171
-12 171 -28 0 -17 41 14 49 8 2 23 6 33 8 12 4 17 -1 17 -17 0 -18 -4 -21 -25
-18 -31 6 -33 -7 -3 -23 18 -10 24 -8 35 7 15 20 18 70 4 78 -4 3 -17 -1 -27
-9 -25 -19 -44 -19 -44 0 0 8 14 21 30 30 17 9 30 22 30 30 0 8 6 15 14 15 10
0 16 -18 21 -57z m-1300 -45 c0 -51 3 -114 7 -139 l7 -47 -53 36 c-53 34 -54
35 -44 70 8 29 7 38 -6 48 -21 15 -20 24 2 24 24 0 42 19 42 46 0 34 10 54 29
54 14 0 16 -13 16 -92z m-305 -32 c158 -1 194 -10 188 -49 -3 -20 -8 -22 -54
-19 -69 5 -168 -15 -226 -44 -29 -15 -65 -24 -93 -24 -40 0 -47 3 -55 26 -11
28 -13 84 -4 84 3 0 31 -7 62 -16 45 -13 83 -16 185 -11 71 3 132 8 135 11 13
13 -13 21 -56 17 -136 -13 -313 11 -325 43 -4 9 8 9 46 -2 35 -10 100 -16 197
-16z m2174 15 c14 -22 -203 -61 -301 -54 -46 4 -73 2 -77 -6 -12 -18 281 -15
334 4 56 20 57 20 63 -12 10 -54 -14 -78 -99 -98 -68 -16 -88 -17 -178 -6
-118 14 -150 27 -153 61 -1 14 -5 35 -9 48 -5 19 -1 24 30 37 28 12 60 14 148
9 86 -4 126 -2 168 9 67 19 68 19 74 8z m-679 -63 c-9 -27 -22 -44 -30 -36 -8
7 16 58 27 58 5 0 6 -10 3 -22z m-1422 -74 l-28 -26 36 26 c20 14 45 26 56 26
42 0 149 -64 214 -129 76 -76 103 -138 102 -237 -1 -102 -68 -222 -160 -286
-51 -34 -55 -29 -12 15 16 18 49 63 71 101 34 56 42 79 44 125 5 129 -29 203
-125 274 -76 56 -143 80 -204 73 -54 -7 -140 -40 -158 -62 -18 -22 -29 -17
-29 13 0 38 -11 22 -12 -18 -1 -21 -8 -39 -20 -47 -22 -16 -52 -73 -67 -128
-9 -33 -8 -55 5 -105 9 -35 23 -75 32 -89 8 -14 22 -36 31 -49 15 -24 15 -24
-11 -18 -15 4 -29 3 -32 -2 -7 -10 52 -24 66 -15 5 3 17 -1 26 -9 38 -33 86
-49 156 -50 123 -3 173 34 237 177 17 39 20 62 16 107 -6 66 -28 102 -95 150
l-44 32 23 18 c13 10 20 19 14 18 -5 0 -18 -6 -29 -14 -13 -10 -33 -12 -67 -8
-106 13 -204 -47 -231 -142 -15 -51 -12 -49 -38 -35 -37 20 -35 2 3 -20 24
-14 37 -30 41 -53 9 -46 50 -100 96 -126 73 -41 173 -12 207 60 16 34 18 51
11 96 -14 92 -56 130 -146 136 -34 2 -42 6 -42 22 0 16 -2 17 -9 6 -5 -8 -7
-20 -4 -28 3 -7 -5 -22 -18 -32 -21 -17 -24 -28 -24 -81 1 -55 4 -65 28 -86
20 -17 40 -24 71 -24 58 0 81 25 73 80 -7 55 -22 70 -67 70 -35 0 -39 -3 -45
-31 -7 -33 6 -56 25 -44 8 5 8 11 -1 22 -22 25 25 45 49 21 16 -16 16 -70 0
-86 -19 -19 -59 -14 -85 10 -25 24 -29 60 -12 121 9 34 13 37 45 37 74 0 126
-42 139 -113 10 -51 0 -83 -37 -119 -28 -28 -35 -30 -85 -26 -92 8 -153 76
-153 174 0 47 4 57 46 107 43 52 49 56 100 63 36 4 65 2 82 -6 l26 -12 -24
-19 c-30 -23 -14 -26 19 -3 22 16 24 15 67 -27 71 -70 90 -127 63 -196 -10
-26 -12 -27 -23 -10 -7 9 -19 17 -27 17 -9 -1 -6 -7 9 -19 12 -11 22 -22 22
-26 0 -15 -84 -107 -111 -120 -42 -22 -144 -19 -196 6 -80 39 -153 158 -153
249 0 53 23 107 62 148 36 37 45 39 51 15 3 -12 5 -9 6 8 2 52 91 95 176 86
74 -7 133 -37 200 -101 59 -55 69 -82 33 -89 -20 -4 -20 -4 4 -6 32 -1 39 -20
39 -97 0 -75 -42 -161 -118 -243 l-58 -61 -80 -11 c-97 -13 -144 -7 -221 30
-57 27 -94 59 -118 99 -44 75 -66 125 -66 148 l0 27 25 -23 c14 -13 28 -21 31
-17 3 3 -11 20 -31 38 -34 30 -37 36 -32 76 17 154 204 321 360 323 l38 0 -28
-26z m388 -56 c-8 -30 -9 -28 -9 27 0 50 1 56 9 33 7 -17 7 -38 0 -60z m1030
20 c-4 -50 -5 -51 -11 -20 -8 34 -3 72 9 72 3 0 4 -24 2 -52z m647 -75 l-3
-56 -50 -18 c-28 -10 -81 -18 -121 -18 -65 -1 -72 1 -98 28 -31 32 -30 53 5
89 21 23 82 31 94 12 3 -5 1 -10 -6 -10 -15 0 -81 -41 -76 -47 6 -5 199 57
212 68 5 5 17 9 27 9 17 0 19 -7 16 -57z m-1613 -137 c24 -19 72 -36 152 -56
64 -16 120 -34 124 -42 15 -23 10 -38 -16 -50 -14 -6 -25 -17 -25 -25 0 -7 -5
-13 -11 -13 -17 0 -309 -180 -309 -191 0 -5 -8 -9 -18 -9 -23 0 -42 -19 -42
-42 0 -10 -4 -18 -9 -18 -5 0 -21 -20 -35 -44 -24 -42 -85 -84 -105 -72 -4 3
-11 22 -14 43 -3 21 -8 46 -12 56 -5 12 -2 17 11 17 33 0 120 57 163 106 67
76 94 145 95 239 1 44 -3 103 -7 130 -7 48 -7 49 7 24 8 -14 31 -38 51 -53z
m1534 7 c-1 -10 2 -28 6 -40 6 -19 2 -23 -31 -32 -21 -6 -39 -9 -41 -7 -2 1 6
24 17 49 21 46 49 63 49 30z m-1148 -123 l59 -20 62 20 c34 11 65 20 69 20 5
0 7 -21 6 -47 -2 -45 -5 -49 -67 -100 -36 -29 -67 -53 -70 -53 -3 0 -34 26
-70 58 -57 52 -64 62 -66 100 -1 23 2 42 7 42 5 0 37 -9 70 -20z m-723 -400
c13 -41 16 -62 8 -70 -7 -7 -14 4 -23 37 -7 27 -15 58 -19 71 -3 12 -2 22 4
22 6 0 19 -27 30 -60z m173 -92 c27 -53 10 -74 -20 -25 -22 35 -29 83 -11 72
6 -4 20 -25 31 -47z m-61 -18 c25 -36 21 -46 -24 -54 -18 -4 -52 -20 -74 -36
-24 -17 -48 -27 -57 -24 -11 5 -15 -1 -15 -20 0 -34 18 -33 72 3 94 63 160 74
144 23 -6 -19 -85 -68 -141 -87 -33 -11 -48 -45 -19 -45 16 0 128 53 151 72
21 17 27 -19 9 -47 -9 -13 -34 -35 -56 -47 -37 -21 -54 -48 -30 -48 15 0 71
29 93 48 31 28 20 -11 -13 -43 -38 -36 -76 -35 -132 3 -58 40 -73 59 -91 113
-28 84 -14 119 78 188 52 38 78 39 105 1z m118 -353 c2 -15 -1 -27 -7 -27 -6
0 -11 6 -11 14 0 8 -3 22 -7 32 -4 12 -2 15 8 12 8 -2 15 -17 17 -31z"/>
<path d="M2426 2281 c-22 -3 -41 -10 -43 -16 -2 -6 35 -9 102 -7 105 4 129 -4
81 -26 -36 -16 -355 -94 -368 -90 -6 2 6 15 28 28 28 17 34 25 22 27 -19 5
-78 -23 -78 -36 0 -5 -3 -17 -6 -26 -6 -15 2 -16 72 -13 135 7 377 78 413 121
10 13 7 16 -18 22 -17 4 -33 11 -36 16 -7 10 -106 10 -169 0z"/>
<path d="M2270 2010 c0 -10 23 -30 35 -30 7 0 12 7 12 15 0 8 -4 12 -9 9 -4
-3 -8 -1 -8 4 0 5 -7 9 -15 9 -8 0 -15 -3 -15 -7z"/>
<path d="M285 2280 c-11 -18 155 -90 278 -120 143 -36 237 -40 237 -12 0 18
-29 52 -44 52 -4 0 -2 -9 4 -21 7 -11 10 -22 8 -24 -5 -5 -261 51 -332 73 -54
16 -87 42 -54 42 45 0 251 -31 268 -40 12 -6 26 -10 33 -7 19 6 -40 39 -96 54
-59 15 -293 18 -302 3z"/>
<path d="M250 2183 c1 -9 90 -56 90 -48 0 6 -73 55 -82 55 -5 0 -8 -3 -8 -7z"/>
<path d="M263 2119 c4 -13 7 -28 7 -33 0 -4 6 -6 13 -3 7 2 25 -8 40 -23 16
-15 37 -30 48 -33 28 -7 17 5 -40 43 -28 19 -51 40 -51 47 0 6 -5 15 -12 19
-8 5 -9 0 -5 -17z"/>
<path d="M1835 1930 c-5 -8 80 -72 135 -100 32 -16 21 -6 -62 58 -37 28 -70
47 -73 42z"/>
<path d="M1380 1907 c0 -14 69 -94 98 -113 17 -11 10 1 -20 32 -26 27 -54 58
-63 69 -8 11 -15 16 -15 12z"/>
<path d="M300 1752 c0 -5 14 -21 30 -37 24 -23 30 -25 30 -11 0 11 -4 14 -12
10 -8 -5 -9 -2 -5 9 4 11 -1 20 -13 27 -23 12 -30 13 -30 2z"/>
<path d="M1332 1755 c38 -26 58 -31 58 -16 0 10 -61 41 -81 41 -8 0 3 -11 23
-25z"/>
<path d="M1800 1356 c0 -13 41 -36 65 -36 26 0 16 29 -12 36 -16 3 -34 7 -40
10 -7 2 -13 -3 -13 -10z"/>
<path d="M1103 1345 c-9 -24 2 -28 41 -15 51 17 54 30 6 30 -27 0 -43 -5 -47
-15z"/>
<path d="M1212 1314 c-28 -19 -31 -50 -4 -35 11 6 23 6 28 1 26 -24 235 -68
211 -43 -4 3 -44 18 -90 33 -63 20 -81 30 -79 43 4 22 -35 23 -66 1z"/>
<path d="M1729 1316 c12 -14 6 -17 -168 -72 -8 -2 -11 -7 -7 -11 10 -10 147
16 187 36 24 12 42 15 52 9 17 -9 29 2 19 18 -11 17 -48 34 -73 34 -17 0 -19
-3 -10 -14z"/>
<path d="M2320 1739 c42 -19 90 -27 96 -18 7 11 -8 16 -71 23 -42 5 -46 4 -25
-5z"/>
<path d="M752 1083 c-19 -8 -3 -23 25 -23 21 0 24 2 13 15 -13 16 -17 17 -38
8z"/>
<path d="M1090 1000 c-31 -7 -28 -8 23 -9 37 -1 56 3 52 9 -7 11 -23 11 -75 0z"/>
<path d="M191 1253 c1 -22 3 -29 6 -18 3 11 9 24 14 30 14 14 11 25 -6 25 -11
0 -15 -10 -14 -37z"/>
<path d="M2740 1277 c0 -8 9 -24 20 -37 16 -18 20 -20 20 -7 0 10 -9 26 -20
37 -14 14 -20 16 -20 7z"/>
<path d="M2850 1240 c-31 -39 -31 -50 0 -30 11 7 18 3 27 -13 11 -20 12 -16
13 31 0 28 -2 52 -4 52 -2 0 -19 -18 -36 -40z"/>
<path d="M2956 1194 c-22 -19 -33 -34 -25 -34 20 0 73 44 68 57 -2 6 -22 -4
-43 -23z"/>
<path d="M58 1202 c-14 -3 -18 -13 -18 -43 0 -24 4 -38 10 -34 6 3 10 17 10
30 0 27 13 34 59 29 19 -3 32 -2 29 2 -10 9 -71 20 -90 16z"/>
<path d="M112 1029 c-7 -11 -16 -18 -20 -15 -5 3 -14 1 -22 -5 -11 -6 -7 -9
16 -9 24 0 33 5 37 22 8 29 4 32 -11 7z"/>
<path d="M2127 1034 c-4 -4 -16 -7 -27 -8 -11 0 -20 -5 -21 -11 0 -17 32 -18
44 -2 7 9 21 17 32 20 19 5 19 5 -1 6 -11 0 -24 -2 -27 -5z"/>
<path d="M2213 985 c1 -21 8 -31 22 -34 19 -3 19 -2 4 15 -9 11 -19 26 -22 34
-4 8 -5 2 -4 -15z"/>
<path d="M2021 958 c-1 -26 6 -45 24 -66 14 -17 25 -36 25 -43 0 -11 3 -11 10
1 15 23 12 30 -15 40 -23 9 -29 21 -38 80 -3 17 -5 14 -6 -12z"/>
<path d="M2711 968 c0 -16 -6 -28 -13 -28 -9 0 -9 -3 0 -12 18 -18 30 2 21 37
l-7 30 -1 -27z"/>
<path d="M1405 849 c3 -8 26 -28 52 -46 51 -36 53 -35 118 22 50 44 25 47 -34
4 -47 -33 -35 -35 -116 17 -19 13 -24 13 -20 3z"/>
<path d="M2170 844 c0 -8 5 -12 11 -9 6 4 23 11 37 15 25 8 24 8 -10 9 -28 1
-38 -3 -38 -15z"/>
<path d="M320 683 c0 -19 5 -23 33 -22 31 0 31 1 7 10 -13 6 -28 15 -32 22 -5
8 -8 4 -8 -10z"/>
<path d="M2676 600 c3 -41 8 -77 10 -79 12 -12 11 12 -1 79 l-15 75 6 -75z"/>
<path d="M2450 582 c0 -5 9 -17 20 -27 11 -10 20 -27 20 -38 0 -24 9 -18 14
10 3 14 -5 28 -25 42 -16 12 -29 18 -29 13z"/>
<path d="M338 573 c-34 -4 -38 -7 -37 -31 0 -22 2 -23 8 -9 4 10 9 18 11 17 8
-2 60 19 60 25 0 3 -1 4 -2 3 -2 -1 -20 -3 -40 -5z"/>
<path d="M2570 480 l-25 -20 45 15 c25 7 54 16 65 18 11 3 2 5 -20 6 -26 0
-49 -6 -65 -19z"/>
<path d="M2588 190 c18 -4 39 -16 46 -25 12 -16 13 -16 19 -1 4 11 18 16 42
16 34 0 35 -1 35 -38 0 -21 -4 -42 -9 -48 -10 -11 -2 -94 10 -94 4 0 8 19 8
43 0 23 2 58 6 77 10 55 -7 67 -105 73 -52 3 -72 2 -52 -3z"/>
<path d="M2530 163 c0 -12 -4 -25 -10 -28 -17 -10 -11 -25 10 -25 22 0 27 33
10 60 -8 12 -10 11 -10 -7z"/>
<path d="M273 132 c-13 -2 -23 -8 -23 -13 0 -6 -16 -17 -35 -25 -44 -18 -44
-24 -1 -24 28 0 35 5 40 24 5 19 14 25 39 28 18 2 25 5 17 8 -8 3 -25 4 -37 2z"/>
<path d="M338 89 c3 -19 11 -38 18 -44 7 -5 14 -19 17 -30 4 -18 5 -18 6 2 0
12 -3 25 -9 28 -5 3 -10 14 -10 24 0 9 -6 25 -13 36 -13 16 -13 15 -9 -16z"/>
<path d="M2535 20 c37 -25 97 -28 88 -4 -4 11 -17 15 -44 13 -21 -2 -41 0 -45
4 -4 4 -12 7 -18 7 -6 0 3 -9 19 -20z"/>
</g>
</svg>
